# xmcd
#
# Track frame offsets:
#	150
#	17363
#	32804
#	48213
#	64193
#	80113
#	95698
#	112184
#	128441
#	144923
#	161953
#	176159
#	190677
#
# Disc length: 2786 seconds
#
# Revision: 3
# Processed by: cddbd v1.5.2PL0 Copyright (c) Steve Scherf et al.
# Submitted via: EasyCDDAExtractor 15.3.0.1
#
DISCID=ae0ae00d
DTITLE=La Quinta Estacion - Sin Frenos
DYEAR=2009
DGENRE=Latin
TTITLE0=Que Te Queria
TTITLE1=Me Dueles
TTITLE2=Mis Labios Por Tus Piernas
TTITLE3=Te Quiero
TTITLE4=Sin Frenos
TTITLE5=Recuerdame
TTITLE6=Esta Noche No
TTITLE7=Es Cierto
TTITLE8=Te Supieron A Poco
TTITLE9=Quiereme Mucho
TTITLE10=Engañame
TTITLE11=Sin Salida
TTITLE12=Recuerdame (A Dueto Con Marc Anthony)
EXTD=MiG
EXTT0=
EXTT1=
EXTT2=
EXTT3=
EXTT4=
EXTT5=
EXTT6=
EXTT7=
EXTT8=
EXTT9=
EXTT10=
EXTT11=
EXTT12=
PLAYORDER=
